<?xml version="1.0" encoding="UTF-8" standalone="no"?>
<!DOCTYPE svg PUBLIC "-//W3C//DTD SVG 1.1//EN" "http://www.w3.org/Graphics/SVG/1.1/DTD/svg11.dtd">
<svg xmlns:xl="http://www.w3.org/1999/xlink" xmlns:dc="http://purl.org/dc/elements/1.1/" xmlns="http://www.w3.org/2000/svg" version="1.1" viewBox="84.01932 290.8667 360 360" width="360" height="360">
  <defs/>
  <metadata> Produced by OmniGraffle 7.19.2\n2021-11-19 17:43:40 +0000</metadata>
  <g id="Canvas_1" stroke="none" stroke-opacity="1" fill="none" stroke-dasharray="none" fill-opacity="1">
    <title>Canvas 1</title>
    <g id="Canvas_1_Layer_1">
      <title>Layer 1</title>
      <g id="Graphic_35">
        <path d="M 104.51932 291.3667 L 104.51932 291.3667 C 93.47363 291.3667 84.51932 300.321 84.51932 311.3667 L 84.51932 630.3667 C 84.51932 641.4124 93.47363 650.3667 104.51932 650.3667 L 423.5193 650.3667 C 434.565 650.3667 443.5193 641.4124 443.5193 630.3667 L 443.5193 311.3667 C 443.5193 300.321 434.565 291.3667 423.5193 291.3667 Z M 232.34587 446.80566 L 219.93424 418.35107 L 206.92643 446.80566 Z M 334.33682 436.7968 L 334.33682 436.7968 C 334.33682 446.04683 337.4442 453.6527 343.6591 459.61465 C 349.83783 465.5766 356.974 468.5575 365.06778 468.5575 C 373.8481 468.5575 381.25525 465.5224 387.28946 459.45206 C 393.32367 453.30945 396.34073 445.83003 396.34073 437.0136 C 396.34073 428.08873 393.3598 420.6093 387.39786 414.5751 C 381.47205 408.50476 374.13716 405.46963 365.39297 405.46963 C 356.68492 405.46963 349.33197 408.50476 343.3339 414.5751 C 337.3358 420.5732 334.33682 427.98033 334.33682 436.7968 Z M 333.0549 471.39903 L 333.0549 471.39903 L 333.0549 486.358 C 325.75604 480.25154 318.20436 477.19835 310.39963 477.19835 C 301.79998 477.19835 294.55542 480.28767 288.66574 486.4664 C 282.73993 492.609 279.77707 500.1246 279.77707 509.0133 C 279.77707 517.7936 282.73993 525.20076 288.66574 531.23497 C 294.59155 537.2692 301.85418 540.28624 310.45383 540.28624 C 314.8982 540.28624 318.67403 539.5636 321.78147 538.1183 C 323.51585 537.3956 325.31344 536.42003 327.1743 535.1915 C 329.03514 533.963 330.99532 532.48156 333.0549 530.7472 L 333.0549 545.97716 C 325.8283 550.0602 318.2405 552.10167 310.29123 552.10167 C 298.3312 552.10167 288.1238 547.9284 279.66867 539.58165 C 271.2497 531.16266 267.04025 521.00944 267.04025 509.1217 C 267.04025 498.46245 270.56317 488.9596 277.6091 480.6129 C 286.28102 470.38726 297.50015 465.2745 311.2668 465.2745 C 312.58294 465.2745 313.8913 465.3371 315.1919 465.46233 L 272.02498 420.4169 L 272.02498 479.00626 L 259.39656 479.00626 L 259.39656 479 L 246.27506 479 L 246.27317 478.9956 L 226.54655 478.9956 L 226.54655 499.1035 L 259.12028 499.1035 L 259.12028 510.97314 L 226.54655 510.97314 L 226.54655 538.93994 L 260.09587 538.93994 L 260.09587 550.8096 L 213.91813 550.8096 L 213.91813 467.126 L 241.1455 467.126 L 237.4948 458.6753 L 201.6691 458.6753 L 197.79306 467.126 L 198.05566 467.126 L 198.05566 478.9956 L 192.34886 478.9956 L 192.34684 479 L 178.86914 479 L 178.86914 550.8096 L 166.24072 550.8096 L 166.24072 478.9956 L 158.90592 478.9956 L 158.90592 479 L 146.2775 479 L 146.2775 442.8491 L 118.9611 395.3164 L 133.48649 395.3164 L 152.61881 428.7573 L 171.80534 395.3164 L 186.33073 395.3164 L 158.90592 442.8491 L 158.90592 467.126 L 184.27102 467.126 L 220.15104 390.0591 L 254.76305 467.126 L 259.39656 467.126 L 259.39656 389.63175 L 320.4249 453.47843 L 320.4249 395.32267 L 333.0533 395.32267 L 333.0533 407.8145 C 333.53802 407.29796 334.03813 406.78733 334.5536 406.2826 C 343.15327 397.8275 353.48715 393.6 365.55557 393.6 C 377.47946 393.6 387.70494 397.86364 396.23233 406.391 C 404.79585 414.9184 409.07754 425.16196 409.07754 437.122 C 409.07754 448.80054 405.02688 458.75995 396.9254 467.0005 L 403.8274 467.0005 L 403.8274 550.6841 L 391.199 550.6841 L 391.199 511.60645 L 355.1023 511.60645 L 355.1023 550.6841 L 342.4739 550.6841 L 342.4739 474.0728 C 340.1801 472.668 337.95555 471.0283 335.8002 469.1537 C 334.8354 468.31044 333.91977 467.4405 333.0533 466.54396 L 333.0533 471.3981 C 333.05384 471.3984 333.05437 471.3987 333.0549 471.39903 Z M 355.1023 479.278 L 355.1023 499.7368 L 391.199 499.7368 L 391.199 471.9868 C 383.62213 477.5776 374.8576 480.37296 364.9052 480.37296 C 361.53 480.37296 358.26237 480.00796 355.1023 479.278 Z" fill="#194ea2"/>
        <path d="M 104.51932 291.3667 L 104.51932 291.3667 C 93.47363 291.3667 84.51932 300.321 84.51932 311.3667 L 84.51932 630.3667 C 84.51932 641.4124 93.47363 650.3667 104.51932 650.3667 L 423.5193 650.3667 C 434.565 650.3667 443.5193 641.4124 443.5193 630.3667 L 443.5193 311.3667 C 443.5193 300.321 434.565 291.3667 423.5193 291.3667 Z M 232.34587 446.80566 L 219.93424 418.35107 L 206.92643 446.80566 Z M 334.33682 436.7968 L 334.33682 436.7968 C 334.33682 446.04683 337.4442 453.6527 343.6591 459.61465 C 349.83783 465.5766 356.974 468.5575 365.06778 468.5575 C 373.8481 468.5575 381.25525 465.5224 387.28946 459.45206 C 393.32367 453.30945 396.34073 445.83003 396.34073 437.0136 C 396.34073 428.08873 393.3598 420.6093 387.39786 414.5751 C 381.47205 408.50476 374.13716 405.46963 365.39297 405.46963 C 356.68492 405.46963 349.33197 408.50476 343.3339 414.5751 C 337.3358 420.5732 334.33682 427.98033 334.33682 436.7968 Z M 333.0549 471.39903 L 333.0549 471.39903 L 333.0549 486.358 C 325.75604 480.25154 318.20436 477.19835 310.39963 477.19835 C 301.79998 477.19835 294.55542 480.28767 288.66574 486.4664 C 282.73993 492.609 279.77707 500.1246 279.77707 509.0133 C 279.77707 517.7936 282.73993 525.20076 288.66574 531.23497 C 294.59155 537.2692 301.85418 540.28624 310.45383 540.28624 C 314.8982 540.28624 318.67403 539.5636 321.78147 538.1183 C 323.51585 537.3956 325.31344 536.42003 327.1743 535.1915 C 329.03514 533.963 330.99532 532.48156 333.0549 530.7472 L 333.0549 545.97716 C 325.8283 550.0602 318.2405 552.10167 310.29123 552.10167 C 298.3312 552.10167 288.1238 547.9284 279.66867 539.58165 C 271.2497 531.16266 267.04025 521.00944 267.04025 509.1217 C 267.04025 498.46245 270.56317 488.9596 277.6091 480.6129 C 286.28102 470.38726 297.50015 465.2745 311.2668 465.2745 C 312.58294 465.2745 313.8913 465.3371 315.1919 465.46233 L 272.02498 420.4169 L 272.02498 479.00626 L 259.39656 479.00626 L 259.39656 479 L 246.27506 479 L 246.27317 478.9956 L 226.54655 478.9956 L 226.54655 499.1035 L 259.12028 499.1035 L 259.12028 510.97314 L 226.54655 510.97314 L 226.54655 538.93994 L 260.09587 538.93994 L 260.09587 550.8096 L 213.91813 550.8096 L 213.91813 467.126 L 241.1455 467.126 L 237.4948 458.6753 L 201.6691 458.6753 L 197.79306 467.126 L 198.05566 467.126 L 198.05566 478.9956 L 192.34886 478.9956 L 192.34684 479 L 178.86914 479 L 178.86914 550.8096 L 166.24072 550.8096 L 166.24072 478.9956 L 158.90592 478.9956 L 158.90592 479 L 146.2775 479 L 146.2775 442.8491 L 118.9611 395.3164 L 133.48649 395.3164 L 152.61881 428.7573 L 171.80534 395.3164 L 186.33073 395.3164 L 158.90592 442.8491 L 158.90592 467.126 L 184.27102 467.126 L 220.15104 390.0591 L 254.76305 467.126 L 259.39656 467.126 L 259.39656 389.63175 L 320.4249 453.47843 L 320.4249 395.32267 L 333.0533 395.32267 L 333.0533 407.8145 C 333.53802 407.29796 334.03813 406.78733 334.5536 406.2826 C 343.15327 397.8275 353.48715 393.6 365.55557 393.6 C 377.47946 393.6 387.70494 397.86364 396.23233 406.391 C 404.79585 414.9184 409.07754 425.16196 409.07754 437.122 C 409.07754 448.80054 405.02688 458.75995 396.9254 467.0005 L 403.8274 467.0005 L 403.8274 550.6841 L 391.199 550.6841 L 391.199 511.60645 L 355.1023 511.60645 L 355.1023 550.6841 L 342.4739 550.6841 L 342.4739 474.0728 C 340.1801 472.668 337.95555 471.0283 335.8002 469.1537 C 334.8354 468.31044 333.91977 467.4405 333.0533 466.54396 L 333.0533 471.3981 C 333.05384 471.3984 333.05437 471.3987 333.0549 471.39903 Z M 355.1023 479.278 L 355.1023 499.7368 L 391.199 499.7368 L 391.199 471.9868 C 383.62213 477.5776 374.8576 480.37296 364.9052 480.37296 C 361.53 480.37296 358.26237 480.00796 355.1023 479.278 Z" stroke="gray" stroke-linecap="round" stroke-linejoin="round" stroke-width="1"/>
      </g>
    </g>
  </g>
</svg>
